<svg id="Layer_1" data-name="Layer 1" xmlns="http://www.w3.org/2000/svg" width="438.62" height="438.61" viewBox="0 0 438.62 438.61">
  <g>
    <path d="M115,120.18c124.69,23.26-24,314.76-24,314.76L491.2,34.81l-389.56,84A90.16,90.16,0,0,1,115,120.18Zm329-59.7L138.19,366.37c4.82-12.12,9.73-25.17,14.43-38.75,29.44-85.11,35.15-147,16.95-184a70.32,70.32,0,0,0-15.28-20.69Z" transform="translate(-52.57 -34.81)" fill="#1212f9"/>
    <g>
      <g>
        <path d="M91.05,434.94s44.32-86.89,64.27-169.58c-7.09-.94-14.27-1.74-21.47-2.4-17.52,92.23-81.28,210.46-81.28,210.46Z" transform="translate(-52.57 -34.81)" fill="#353535"/>
        <path d="M152.62,327.62c-4.7,13.58-9.61,26.63-14.43,38.75l84.94-84.94c-15.64-6.1-33.67-10.57-52.76-13.8Q163.77,295.38,152.62,327.62Z" transform="translate(-52.57 -34.81)" fill="#353535"/>
      </g>
      <g>
        <path d="M63.16,157.25c42.68-6.79,63.9,8.56,71.59,35.64L164,180c-1.83-16.42-6.63-30.57-15.42-41.11Z" transform="translate(-52.57 -34.81)" fill="#353535"/>
        <path d="M178.4,173.57,359.69,93.34l-194.88,42a77,77,0,0,1,4.76,8.29A100.21,100.21,0,0,1,178.4,173.57Z" transform="translate(-52.57 -34.81)" fill="#353535"/>
      </g>
    </g>
  </g>
</svg>
