<svg id="Layer_1" data-name="Layer 1" xmlns="http://www.w3.org/2000/svg" viewBox="0 0 392.39 306.67"><defs><style>.cls-1{fill:#0f9d58;}.cls-2{fill:#fff;}</style></defs><g id="Layer_8" data-name="Layer 8"><path class="cls-1" d="M0,110.47H392.39v108.2a88,88,0,0,1-88,88H88a88,88,0,0,1-88-88V110.47Z"/></g><g id="Layer_6" data-name="Layer 6"><path class="cls-2" d="M36,110.47l79.12,86a138.38,138.38,0,0,1,21.67-13.33L106,110.43H36Z"/></g><g id="Layer_16" data-name="Layer 16"><path class="cls-2" d="M188.6,222.93h-4.37V195H177.5v-2.64l8.05-2.73h3Z"/><path class="cls-2" d="M217.67,198.49c0,5.14-2.82,8.6-10.33,14.93l-6.6,5.6H217.9v3.91H195.19V218.6l8.28-7c7.47-6.32,9.74-8.92,9.74-12.65,0-3.55-2.41-5.82-6.33-5.82-4.59,0-6.59,2.41-6.91,6.41h-4.46c.45-6.55,3.87-10.42,11.65-10.42C213.76,189.07,217.67,193.12,217.67,198.49Z"/></g><g id="Layer_15" data-name="Layer 15"><path class="cls-2" d="M165.89,251.69l-25.5-60.07a129.71,129.71,0,0,0-19,11.66Z"/></g><g id="Layer_14" data-name="Layer 14"><path class="cls-2" d="M306.74,222.66l34-26.18-37.28-32.39-23.72,32A138.7,138.7,0,0,1,306.74,222.66Z"/></g><g id="Layer_13" data-name="Layer 13"><path class="cls-2" d="M274.26,203.43,197.72,306.66,299.5,228.24A129.25,129.25,0,0,0,274.26,203.43Z"/></g><g id="Layer_12" data-name="Layer 12"><path class="cls-2" d="M299.5,228.24a127.93,127.93,0,0,1,26.79,78.42h9.15a137,137,0,0,0-28.7-84Z"/></g><g id="Layer_11" data-name="Layer 11"><path class="cls-2" d="M197.72,168.94a136.91,136.91,0,0,0-60.91,14.24l3.58,8.44a128.26,128.26,0,0,1,133.87,11.81l5.45-7.35A137,137,0,0,0,197.72,168.94Z"/></g><g id="Layer_10" data-name="Layer 10"><path class="cls-2" d="M60,306.66h9.16a128.43,128.43,0,0,1,52.22-103.38l-6.23-6.77A137.6,137.6,0,0,0,60,306.66Z"/></g><g id="Layer_3" data-name="Layer 3"><path class="cls-1" d="M166.44,32.35c0-6.53,2.51-10.09,7.12-10.09h21.75V19.18c0-2.61-.28-3-2.1-3H168V7.88h26.4c4.61,0,7.12,3.56,7.12,10.12V38.35h0v6.4H173.6c-4.61,0-7.12-3.55-7.12-10.11Zm6.23,1.16c0,2.56.28,3,2.1,3h20.54V30.54H174.77c-1.82,0-2.1.45-2.1,3Z"/><path class="cls-1" d="M369.12,19.65v11.7H333.76v2.82c0,2.45.34,2.83,2.57,2.83h32.79v7.79H334.53c-5.63,0-8.68-3.34-8.68-9.5V19.65c0-6.17,3-9.51,8.68-9.51h25.91C366.05,10.14,369.12,13.48,369.12,19.65Zm-7.91,3.93V20.76c0-2.45-.34-2.82-2.58-2.82h-22.3c-2.23,0-2.57.37-2.57,2.82v2.82Z"/><path class="cls-1" d="M316.38,11.86V4h-7.91V8h-28c-5.62,0-8.67,3.56-8.67,10.12v2.28c0,6.53,3,10.09,8.67,10.09h28v3.08c0,2.61-.34,3-2.58,3H275.6v8.3h32.08c5.61,0,8.66-3.55,8.66-10.11V16.21h-7.91v5.92H282c-2.21,0-2.57-.42-2.57-3s.36-2.95,2.57-2.95h26.51V11.83Z"/><rect class="cls-1" x="218.51" y="16.21" width="7.91" height="28.58"/><path class="cls-1" d="M254,7.91H226.42V3.42h-7.91v7.93h7.91v4.88h25.8c2.22,0,2.58.39,2.58,3V44.81h7.91V18C262.71,11.47,259.6,7.91,254,7.91Z"/><path class="cls-1" d="M59.8,0H51.6L29.16,43.35v1.47h8.38L49,22.82v7.53H66.17l7.59,14.49h8.45V43.35ZM49.21,22.4,55.6,10.14,62,22.4Z"/><path class="cls-1" d="M160.17,7.66H139.06c-5.6,0-8.68,3.55-8.68,10.11V44.54h7.91V19c0-2.61.34-3,2.58-3h19.3Z"/><path class="cls-1" d="M121.32,7.91H100.21c-5.61,0-8.68,3.56-8.68,10.12V44.79h7.91V19.21c0-2.61.34-3,2.57-3h19.31Z"/></g></svg>