<svg width="29" height="29" viewBox="0 0 29 29" fill="none" xmlns="http://www.w3.org/2000/svg">
<path d="M22.7499 28.25C19.7363 28.2427 17.2868 25.8171 17.2499 22.8037V20H11.7499V22.7775C11.7348 25.8115 9.26566 28.2601 6.2317 28.25C3.19774 28.2399 0.744984 25.7749 0.750008 22.7409C0.755047 19.7069 3.21596 17.2501 6.24994 17.25H8.99994V11.75H6.24994C3.21596 11.75 0.755047 9.29313 0.750008 6.25915C0.744984 3.22518 3.19774 0.760163 6.2317 0.750031C9.26566 0.739961 11.7348 3.18859 11.7499 6.22253V9.00003H17.2499V6.25003C17.2499 3.21247 19.7124 0.750031 22.7499 0.750031C25.7875 0.750031 28.2499 3.21247 28.2499 6.25003C28.2499 9.2876 25.7875 11.75 22.7499 11.75H19.9999V17.25H22.7499C25.7875 17.25 28.2499 19.7125 28.2499 22.75C28.2499 25.7876 25.7875 28.25 22.7499 28.25ZM19.9999 20V22.75C19.9999 24.2688 21.2312 25.5 22.7499 25.5C24.2687 25.5 25.4999 24.2688 25.4999 22.75C25.4999 21.2312 24.2687 20 22.7499 20H19.9999ZM6.24994 20C4.73116 20 3.49994 21.2312 3.49994 22.75C3.49994 24.2688 4.73116 25.5 6.24994 25.5C6.98165 25.5078 7.68567 25.2206 8.20309 24.7032C8.72052 24.1858 9.00775 23.4817 8.99994 22.75V20H6.24994ZM11.7499 11.75V17.25H17.2499V11.75H11.7499ZM22.7499 3.50003C22.0182 3.49222 21.3142 3.77945 20.7968 4.29688C20.2794 4.8143 19.9921 5.51832 19.9999 6.25003V9.00003H22.7499C23.4816 9.00784 24.1857 8.72061 24.7031 8.20319C25.2205 7.68576 25.5077 6.98174 25.4999 6.25003C25.5077 5.51832 25.2205 4.8143 24.7031 4.29688C24.1857 3.77945 23.4816 3.49222 22.7499 3.50003ZM6.24994 3.50003C5.51823 3.49222 4.81421 3.77945 4.29678 4.29688C3.77936 4.8143 3.49213 5.51832 3.49994 6.25003C3.49213 6.98174 3.77936 7.68576 4.29678 8.20319C4.81421 8.72061 5.51823 9.00784 6.24994 9.00003H8.99994V6.25003C9.00775 5.51832 8.72052 4.8143 8.20309 4.29688C7.68567 3.77945 6.98165 3.49222 6.24994 3.50003Z" fill="white"/>
</svg>
