<svg id="Layer_1" data-name="Layer 1" xmlns="http://www.w3.org/2000/svg" width="458.81" height="352.4" viewBox="0 0 458.81 352.4">
  <g>
    <g>
      <ellipse cx="229.4" cy="132.56" rx="197.35" ry="131.56" fill="#027c84" stroke="#027c84" stroke-miterlimit="10" stroke-width="2"/>
      <path d="M532.61,241c.94-4.11,1.21-8.34.14-12a14.64,14.64,0,0,0-6.32-8.53,20.21,20.21,0,0,0-10.63-2.94,64.62,64.62,0,0,0-12.35,1.33,104.34,104.34,0,0,0-12.42,3.2,107.32,107.32,0,0,0-11.92,4.61c-3.89,1.83-7.79,3.78-11.5,5.92a128.38,128.38,0,0,0-38.52,32.9c-2.69,3.3-5.19,6.8-7.65,10.33-1.25,1.74-2.42,3.57-3.63,5.35s-2.19,3.46-3.2,5.23a92.25,92.25,0,0,0-9,22.59c-1.95,7.79-3.21,16.34-2.92,23.68a54.4,54.4,0,0,0,5.1,21.45A34.35,34.35,0,0,0,421.19,369a49.43,49.43,0,0,0,20.54,6.48c14.89,1.56,30.47-2.31,44.62-10s27-18.56,37.81-31.2c22.19-25.63,38.3-57.7,58.64-88.55,5.09-7.58,10.52-15.73,18.16-23.29a60.46,60.46,0,0,1,13.45-10.12,43.94,43.94,0,0,1,8.56-3.54,43.37,43.37,0,0,1,9.19-1.6A38.44,38.44,0,0,1,651,210.73a33.27,33.27,0,0,1,8.51,5.87,32.85,32.85,0,0,1,6.19,8.25,43.17,43.17,0,0,1,4.5,17.39,116.29,116.29,0,0,1-.26,14.88l-3.63,54-2.05,27-1,13.49a73.71,73.71,0,0,0-.07,12.24,31,31,0,0,0,2.44,10.57c1.41,2.89,3.07,4.45,5.54,5.11,2.3.63,5.74-.17,9.25-2a88.88,88.88,0,0,0,10.7-6.72A99.7,99.7,0,0,0,710,352.92c4.32-5.15,11.88-15.5,15-19.89,1.5-2.08,2-1.59,1.31.9-3.57,12.7-15.75,32.22-29.14,44.26A82.56,82.56,0,0,1,685.79,387a33.15,33.15,0,0,1-7.28,3.47,21.38,21.38,0,0,1-9.21,1,19.57,19.57,0,0,1-9.07-3.65,22.94,22.94,0,0,1-6.2-6.92,43.91,43.91,0,0,1-5.22-15.19,86.48,86.48,0,0,1-1-14.75l.08-13.52.15-27.06.77-54.08a95.44,95.44,0,0,0-.35-12.14A21.65,21.65,0,0,0,646,235.6a9.49,9.49,0,0,0-4.62-4.1,15.47,15.47,0,0,0-7.48-1,18.79,18.79,0,0,0-7.91,2.63,36.32,36.32,0,0,0-7.85,6.39c-5.06,5.28-9.63,12.29-14.31,19.82-18.8,29.55-34.81,62.87-60,92-12.75,14.56-27.9,27.39-45.56,36.69a114.56,114.56,0,0,1-28.41,10.55,87.65,87.65,0,0,1-31.14,1.38,73.4,73.4,0,0,1-30.23-10.78A57.63,57.63,0,0,1,395.72,378a60.91,60.91,0,0,1-8.84-14.13,73.19,73.19,0,0,1-6.32-31,89.39,89.39,0,0,1,1.54-15.23,120.64,120.64,0,0,1,3.49-14.39,112.69,112.69,0,0,1,12.33-26.92c1.32-2.07,2.74-4.15,4.16-6.1s2.77-3.79,4.24-5.63c2.93-3.69,5.94-7.34,9.18-10.82A142.08,142.08,0,0,1,461.16,220c4.29-2,8.63-3.73,13-5.36a118.36,118.36,0,0,1,13.7-4,115.55,115.55,0,0,1,14-2.36,66.51,66.51,0,0,1,14.6-.06A28.74,28.74,0,0,1,531.1,214a21.79,21.79,0,0,1,8,13.62,28.3,28.3,0,0,1-1.56,15.59c-1.53,4.55-8.35,13.9-9.84,13.1C527,256,530.89,248.82,532.61,241Z" transform="translate(-317.98 -177.59)" fill="#fff"/>
      <path d="M424.39,312.8c21.25,4.74,54.83,4.9,176.24-3.46a.88.88,0,0,1,1,1.14c-2.18,4.82-12.45,35.92-51.61,81.78-.63.74.36,1.72,1.26,1.22,13.06-7.15,54.24-44.29,82.1-97.5,0,0,4.11-8.46-.77-8.29S544.67,305.2,422,309.56C419.94,309.63,418.44,311.47,424.39,312.8Z" transform="translate(-317.98 -177.59)" fill="#fff"/>
    </g>
    <g>
      <rect y="292.72" width="458.81" height="59.68" fill="#fff"/>
      <polygon points="205.09 352.4 0.34 352.4 0.34 292.72 221.43 292.72 205.09 352.4" fill="#027c84"/>
      <path d="M362.9,502.77v1.76c-3.37,0-4.45,1.62-4.45,4.81v15.42H356l-.91-3.52c-2.3,1.9-5.36,4.61-10.45,4.61-10.18,0-16.87-8.8-16.87-25.38,0-14.89,7-25.51,17.09-25.51a17.49,17.49,0,0,1,7.18,1.42l4.34-1.35,3.7,12.11-.86.47c-2.84-4.6-7.07-11-14.09-11-7.72,0-12.43,9.89-12.43,23.5,0,16.24,5.25,24,11.94,24,5.79,0,10.45-5.41,10.45-9.54v-5.27c0-3.19-1.12-4.81-5.94-4.81v-1.76Z" transform="translate(-317.98 -177.59)" fill="#fff" stroke="#fff" stroke-miterlimit="10" stroke-width="1.27"/>
      <path d="M367,524.76v-1.69c4,0,4.81-1.47,4.81-4.72V481.94c0-3-.8-4.14-4.81-4.14v-1.69h17.41c8.3,0,12.59,5.07,12.59,12,0,6.36-3.27,11.91-10.45,12.38a40.59,40.59,0,0,1,6.1,8.5c2,4.24,2.12,9.44,2.63,11,1.52,4.54,4.69-1.13,5.24-1.83.39-.51.3-.38.36.06s-1.13,7.25-6.63,6.64c-2.07-.23-3.26-6.77-5.11-12.24-1.72-5.09-3.23-10.05-6.14-11.78-1.61-1-7.54-.69-7.54-.69v18.15c0,3.25,1.39,4.8,5.14,4.8v1.69Zm8.46-25.91h9.91c5.11-.34,7-5.11,7-10.53,0-6.43-3.58-10.52-8.21-10.52h-4.77c-2.52,0-3.91,1.08-3.91,4.06Z" transform="translate(-317.98 -177.59)" fill="#fff" stroke="#fff" stroke-miterlimit="10" stroke-width="1.27"/>
      <path d="M404.91,524.76v-1.69c3.64,0,4.2-1.51,4.2-4.76V482c0-3.11-.56-4.24-4.2-4.24v-1.69H433l3.75,11.5-.8.68c-2.68-4.13-4.83-10.49-13.13-10.49h-5.25c-2.79,0-4.23,1.22-4.23,4.33v16.31h8.14c3.75,0,5.79-2,5.79-8.46h1.28v18.95h-1.28c0-6-2-8.66-5.79-8.66h-8.14V518.4c0,3.25,1.44,4.67,4.28,4.67h5c6.21,0,10-3.25,14.3-10.76l1,.54-3.64,11.91Z" transform="translate(-317.98 -177.59)" fill="#fff" stroke="#fff" stroke-miterlimit="10" stroke-width="1.27"/>
      <path d="M461.61,475l13.23,43.24c1,3.72,2,4.8,4.87,4.8v1.69H466.1v-1.69c3.54,0,4.69-.66,4.69-2.75a8.37,8.37,0,0,0-.32-2L467,506.92l-15.9.22L448.19,517a13.41,13.41,0,0,0-.54,3.11c0,2.44,1.79,3,5.33,3v1.69H441.3v-1.69c2.94,0,4-.88,5.68-7l11.19-39.58Zm-3.11,4.45-6.88,25.69,14.77-.22Z" transform="translate(-317.98 -177.59)" fill="#fff" stroke="#fff" stroke-miterlimit="10" stroke-width="1.27"/>
      <path d="M491.57,524.83v-1.69c3.32,0,6-.33,6-3.71V481.8c0-2.84-1-3.93-4.45-3.93-6.91,0-9.7,5.21-12.05,10l-.75-.54,3.1-11.16H515.2l3.16,11.64-.91.47c-2.57-5.41-4.45-10.42-11.09-10.42-3.7,0-5.35,1.09-5.35,3.93v37.63c0,3.38,2.08,3.71,6,3.71v1.69Z" transform="translate(-317.98 -177.59)" fill="#fff" stroke="#fff" stroke-miterlimit="10" stroke-width="1.27"/>
      <path d="M549,474.43h4.54l14.26,51.95h-6.71l-9.82-38.7-9.81,38.7h-6.71Zm-7.54,33.9h20v8.19h-20Z" transform="translate(-317.98 -177.59)" fill="#027c84"/>
      <path d="M573,474.43h6.79l16.34,40-.63.93V474.43h6.06v51.91h-6.84L578.47,487l.62-.93v40.3H573Z" transform="translate(-317.98 -177.59)" fill="#027c84"/>
      <path d="M620.55,474.43h4.54l14.25,51.95h-6.7l-9.82-38.7L613,526.38h-6.7ZM613,508.33h20v8.19H613Z" transform="translate(-317.98 -177.59)" fill="#027c84"/>
      <path d="M638.3,474.43h27.3v8.18H638.3Zm10.55,4.25h6.21v47.7h-6.21Z" transform="translate(-317.98 -177.59)" fill="#027c84"/>
      <path d="M675,524.54a15.33,15.33,0,0,1-4.78-6.72,27.54,27.54,0,0,1-1.69-10.06V493A27.49,27.49,0,0,1,670.17,483a15.21,15.21,0,0,1,4.78-6.72,11.86,11.86,0,0,1,14.25,0A15.14,15.14,0,0,1,694,483a27.48,27.48,0,0,1,1.7,10.05v14.72a27.54,27.54,0,0,1-1.7,10.06,15.25,15.25,0,0,1-4.78,6.72,11.9,11.9,0,0,1-14.25,0Zm10.9-7.38a8.24,8.24,0,0,0,2.52-3.66,15.73,15.73,0,0,0,.88-5.49V492.79a15.63,15.63,0,0,0-.88-5.48,8.13,8.13,0,0,0-2.52-3.66,6.17,6.17,0,0,0-7.55,0,8.11,8.11,0,0,0-2.51,3.66,15.4,15.4,0,0,0-.89,5.48V508a15.5,15.5,0,0,0,.89,5.49,8.22,8.22,0,0,0,2.51,3.66,6.21,6.21,0,0,0,7.55,0Z" transform="translate(-317.98 -177.59)" fill="#027c84"/>
      <path d="M728.83,474.43H736v51.95h-5.84V484.23l.26,2.28L719.64,509.2h0l-10.81-22,.26-3v42.15h-5.84V474.43h7.2l9.19,21.45Z" transform="translate(-317.98 -177.59)" fill="#027c84"/>
      <path d="M758.07,503.56v22.82h-6.22V503.56l-11.38-29.13h6.71L755,495.09l7.78-20.66h6.71Z" transform="translate(-317.98 -177.59)" fill="#027c84"/>
    </g>
  </g>
</svg>
