<svg width="199" height="486" viewBox="0 0 199 486" fill="none" xmlns="http://www.w3.org/2000/svg">
<g filter="url(#filter0_d_65_1261)">
<path d="M-16.1613 470.861C-56.1128 452.815 -74.1735 406.035 -56.7141 365.823L-40.0159 328.616L-113.007 295.859L-129.55 332.719C-147.821 372.893 -195.173 390.683 -235.377 372.479C-275.58 354.274 -293.45 306.952 -275.313 266.718C-257.176 226.484 -209.884 208.536 -169.619 226.605L-133.124 242.984L-100.366 169.993L-136.862 153.614C-177.126 135.544 -195.152 88.2811 -177.148 47.9869C-159.145 7.69277 -111.913 -10.4123 -71.5884 7.52333C-31.2644 25.4598 -13.0804 72.6617 -30.9491 113.016L-47.4917 149.876L25.4995 182.634L41.8783 146.138C59.9698 105.827 107.315 87.8134 147.627 105.905C187.939 123.997 205.952 171.342 187.861 211.654C169.769 251.966 122.424 269.979 82.1117 251.887L45.6162 235.508L12.8585 308.5L49.3541 324.878C89.666 342.97 107.679 390.315 89.5875 430.627C71.4959 470.939 24.1506 488.952 -16.1613 470.861ZM-3.52031 344.995L-19.8991 381.491C-28.9449 401.647 -19.9384 425.319 0.217562 434.365C20.3735 443.411 44.0462 434.404 53.092 414.248C62.1377 394.092 53.1312 370.42 32.9752 361.374L-3.52031 344.995ZM-185.998 263.101C-206.154 254.055 -229.827 263.062 -238.873 283.218C-247.918 303.374 -238.912 327.046 -218.756 336.092C-209.092 340.554 -198.038 340.935 -188.089 337.15C-178.141 333.365 -170.136 325.732 -165.881 315.975L-149.503 279.48L-185.998 263.101ZM-63.8705 186.372L-96.6282 259.363L-23.6371 292.121L9.12061 219.13L-63.8705 186.372ZM131.248 142.401C121.584 137.939 110.53 137.558 100.582 141.343C90.6331 145.128 82.6283 152.76 78.3738 162.517L61.995 199.013L98.4906 215.392C108.155 219.853 119.208 220.235 129.157 216.45C139.106 212.664 147.111 205.032 151.365 195.275C155.827 185.611 156.208 174.557 152.423 164.608C148.638 154.66 141.005 146.655 131.248 142.401ZM-87.7251 44.1275C-97.3893 39.6659 -108.443 39.2846 -118.392 43.0697C-128.34 46.8548 -136.345 54.4872 -140.6 64.2443C-145.061 73.9084 -145.442 84.9622 -141.657 94.9108C-137.872 104.859 -130.24 112.864 -120.483 117.119L-83.9872 133.498L-67.6084 97.0019C-63.1468 87.3378 -62.7655 76.284 -66.5505 66.3354C-70.3356 56.3868 -77.968 48.382 -87.7251 44.1275Z" fill="url(#paint0_radial_65_1261)"/>
</g>
<defs>
<filter id="filter0_d_65_1261" x="-286.4" y="0.598633" width="485.294" height="485.295" filterUnits="userSpaceOnUse" color-interpolation-filters="sRGB">
<feFlood flood-opacity="0" result="BackgroundImageFix"/>
<feColorMatrix in="SourceAlpha" type="matrix" values="0 0 0 0 0 0 0 0 0 0 0 0 0 0 0 0 0 0 127 0" result="hardAlpha"/>
<feOffset dy="4"/>
<feGaussianBlur stdDeviation="2"/>
<feComposite in2="hardAlpha" operator="out"/>
<feColorMatrix type="matrix" values="0 0 0 0 0 0 0 0 0 0 0 0 0 0 0 0 0 0 1 0"/>
<feBlend mode="normal" in2="BackgroundImageFix" result="effect1_dropShadow_65_1261"/>
<feBlend mode="normal" in="SourceGraphic" in2="effect1_dropShadow_65_1261" result="shape"/>
</filter>
<radialGradient id="paint0_radial_65_1261" cx="0" cy="0" r="1" gradientUnits="userSpaceOnUse" gradientTransform="translate(-43.7534 239.246) rotate(114.17) scale(200.012 200.012)">
<stop stop-color="#0166D5"/>
<stop offset="1" stop-color="#CF995F"/>
</radialGradient>
</defs>
</svg>
