<svg width="597" height="803" viewBox="0 0 597 803" fill="none" xmlns="http://www.w3.org/2000/svg">
<g filter="url(#filter0_d_65_1262)">
<path d="M416.507 782.741C353.041 745.924 330.13 666.368 365.064 604.109L398.287 546.602L282.304 479.684L249.39 536.654C213.117 598.7 132.032 618.884 68.1719 581.763C4.31209 544.641 -18.2004 464.237 17.8586 402.067C53.9179 339.897 134.928 319.445 198.908 356.358L256.9 389.818L322.076 277.004L264.084 243.545C200.104 206.63 177.323 126.294 213.17 64.001C249.017 1.70858 329.951 -19.0098 394.051 17.6967C458.15 54.4045 481.202 134.671 445.569 197.087L412.655 254.057L528.639 320.976L561.227 264.569C597.222 202.264 678.33 181.717 742.386 218.675C806.442 255.633 829.189 336.102 793.194 398.407C757.198 460.712 676.09 481.26 612.034 444.301L554.043 410.842L488.867 523.655L546.858 557.115C610.914 594.073 633.662 674.542 597.666 736.847C561.67 799.152 480.563 819.699 416.507 782.741ZM456.279 580.062L423.691 636.468C405.693 667.621 417.067 707.855 449.095 726.334C481.123 744.814 521.676 734.54 539.674 703.387C557.672 672.235 546.298 632 514.271 613.521L456.279 580.062ZM166.32 412.765C134.292 394.286 93.7385 404.56 75.7407 435.712C57.7429 466.865 69.1166 507.099 101.144 525.578C116.482 534.641 134.732 537.315 151.775 532.998C168.818 528.68 183.218 517.734 191.724 502.631L224.312 446.224L166.32 412.765ZM380.068 310.464L314.892 423.277L430.875 490.196L496.051 377.383L380.068 310.464ZM709.798 275.082C694.46 266.019 676.21 263.344 659.167 267.662C642.124 271.98 627.725 282.925 619.218 298.029L586.631 354.435L644.622 387.895C659.96 396.958 678.21 399.632 695.253 395.314C712.296 390.997 726.696 380.051 735.202 364.948C744.037 350.034 746.323 332.099 741.543 315.19C736.763 298.281 725.321 283.824 709.798 275.082ZM361.848 74.3253C346.51 65.2624 328.26 62.588 311.217 66.9056C294.174 71.2232 279.775 82.169 271.268 97.2725C262.433 112.186 260.147 130.121 264.927 147.03C269.707 163.939 281.149 178.396 296.672 187.138L354.664 220.598L387.252 164.191C396.087 149.278 398.373 131.343 393.593 114.434C388.813 97.5251 377.371 83.0679 361.848 74.3253Z" fill="url(#paint0_radial_65_1262)" fill-opacity="0.5" shape-rendering="crispEdges"/>
</g>
<defs>
<filter id="filter0_d_65_1262" x="0.668945" y="-0.455811" width="813.606" height="805.572" filterUnits="userSpaceOnUse" color-interpolation-filters="sRGB">
<feFlood flood-opacity="0" result="BackgroundImageFix"/>
<feColorMatrix in="SourceAlpha" type="matrix" values="0 0 0 0 0 0 0 0 0 0 0 0 0 0 0 0 0 0 127 0" result="hardAlpha"/>
<feOffset dx="4" dy="4"/>
<feComposite in2="hardAlpha" operator="out"/>
<feColorMatrix type="matrix" values="0 0 0 0 0.25 0 0 0 0 0.25 0 0 0 0 0.25 0 0 0 0.2 0"/>
<feBlend mode="normal" in2="BackgroundImageFix" result="effect1_dropShadow_65_1262"/>
<feBlend mode="normal" in="SourceGraphic" in2="effect1_dropShadow_65_1262" result="shape"/>
</filter>
<radialGradient id="paint0_radial_65_1262" cx="0" cy="0" r="1" gradientUnits="userSpaceOnUse" gradientTransform="translate(405.472 400.33) rotate(120.016) scale(325.718 334.759)">
<stop stop-color="#003459"/>
<stop offset="1" stop-color="#007EA7"/>
</radialGradient>
</defs>
</svg>
