<svg id="Layer_1" data-name="Layer 1" xmlns="http://www.w3.org/2000/svg" width="27.5" height="27.5" viewBox="0 0 27.5 27.5">
  <path d="M22.75,28.25a5.52,5.52,0,0,1-5.5-5.45V20h-5.5v2.78a5.5,5.5,0,1,1-5.5-5.53H9v-5.5H6.25a5.5,5.5,0,1,1,5.5-5.53V9h5.5V6.25a5.5,5.5,0,1,1,5.5,5.5H20v5.5h2.75a5.5,5.5,0,0,1,0,11ZM20,20v2.75A2.75,2.75,0,1,0,22.75,20ZM6.25,20a2.75,2.75,0,0,0,0,5.5A2.73,2.73,0,0,0,9,22.75V20Zm5.5-8.25v5.5h5.5v-5.5Zm11-8.25A2.73,2.73,0,0,0,20,6.25V9h2.75A2.73,2.73,0,0,0,25.5,6.25,2.73,2.73,0,0,0,22.75,3.5Zm-16.5,0A2.73,2.73,0,0,0,3.5,6.25,2.73,2.73,0,0,0,6.25,9H9V6.25A2.73,2.73,0,0,0,6.25,3.5Z" transform="translate(-0.75 -0.75)" fill="#01385e"/>
</svg>
