<svg id="Layer_1" data-name="Layer 1" xmlns="http://www.w3.org/2000/svg" width="334.15" height="334.14" viewBox="0 0 334.15 334.14">
  <g>
    <path d="M94.51,152.09c95,17.71-18.27,239.78-18.27,239.78L381.08,87,84.3,151A66.6,66.6,0,0,1,94.51,152.09ZM345.19,106.6l-233,233c3.67-9.23,7.41-19.17,11-29.51,22.44-64.84,26.78-112,12.91-140.17a53.08,53.08,0,0,0-11.64-15.77Z" transform="translate(-46.93 -87.04)" fill="#fff"/>
    <g>
      <g>
        <path d="M76.24,391.87s33.76-66.19,49-129.19c-5.4-.72-10.87-1.32-16.36-1.83C95.5,331.11,46.93,421.19,46.93,421.19Z" transform="translate(-46.93 -87.04)" fill="#fff"/>
        <path d="M123.14,310.12c-3.58,10.34-7.32,20.28-11,29.51l64.71-64.7c-11.92-4.65-25.65-8.06-40.19-10.52Q131.63,285.56,123.14,310.12Z" transform="translate(-46.93 -87.04)" fill="#fff"/>
      </g>
      <g>
        <path d="M55,180.32c32.52-5.17,48.68,6.52,54.54,27.16l22.27-9.86c-1.39-12.5-5.05-23.28-11.75-31.32Z" transform="translate(-46.93 -87.04)" fill="#fff"/>
        <path d="M142.79,192.76l138.1-61.13-148.46,32a57.29,57.29,0,0,1,3.62,6.32A76.28,76.28,0,0,1,142.79,192.76Z" transform="translate(-46.93 -87.04)" fill="#fff"/>
      </g>
    </g>
  </g>
</svg>
