<svg id="Layer_1" data-name="Layer 1" xmlns="http://www.w3.org/2000/svg" xmlns:xlink="http://www.w3.org/1999/xlink" width="916.33" height="554" viewBox="0 0 916.33 554">
  <defs>
    <clipPath id="clip-path" transform="translate(91.5 0.5)">
      <rect x="-91" width="860" height="553" rx="16" fill="none"/>
    </clipPath>
    <clipPath id="clip-path-3" transform="translate(91.5 0.5)">
      <rect x="589" y="20" width="16" height="16" fill="none"/>
    </clipPath>
  </defs>
  <g clip-path="url(#clip-path)">
    <g>
      <rect x="0.5" y="0.5" width="860" height="553" rx="16" fill="#fff"/>
      <g clip-path="url(#clip-path)">
        <g>
          <rect x="0.5" y="0.5" width="860" height="56" fill="#fff"/>
          <path d="M23.19,20.06a.56.56,0,0,1,.14.2.6.6,0,0,1,0,.48.56.56,0,0,1-.14.2L16.13,28l7.06,7.06a.62.62,0,1,1-.88.88l-7.5-7.5a.56.56,0,0,1-.14-.2.6.6,0,0,1,0-.48.56.56,0,0,1,.14-.2l7.5-7.5a.56.56,0,0,1,.2-.14.6.6,0,0,1,.48,0,.56.56,0,0,1,.2.14Z" transform="translate(91.5 0.5)" fill="#8c8c8c" fill-rule="evenodd"/>
          <path d="M46.81,20.06a.56.56,0,0,1,.2-.14.6.6,0,0,1,.48,0,.56.56,0,0,1,.2.14l7.5,7.5a.56.56,0,0,1,.14.2.6.6,0,0,1,0,.48.56.56,0,0,1-.14.2l-7.5,7.5a.62.62,0,1,1-.88-.88L53.87,28l-7.06-7.06a.56.56,0,0,1-.14-.2.6.6,0,0,1,0-.48.56.56,0,0,1,.14-.2Z" transform="translate(91.5 0.5)" fill-opacity="0.1" fill-rule="evenodd"/>
          <path d="M47.67,20.08h0l7.5,7.5h0a.5.5,0,0,1,.13.19.68.68,0,0,1,0,.46.5.5,0,0,1-.13.19h0l-7.5,7.5a.59.59,0,0,1-.84-.84L53.89,28l0,0,0,0-7.06-7.06h0a.5.5,0,0,1-.13-.19.55.55,0,0,1,0-.46.5.5,0,0,1,.13-.19l0,0,0,0A.5.5,0,0,1,47,20a.68.68,0,0,1,.46,0A.5.5,0,0,1,47.67,20.08Z" transform="translate(91.5 0.5)" fill="none" stroke="#000" stroke-opacity="0.1" stroke-width="0.06"/>
          <path d="M133,25.8c0-4.48,0-6.72.87-8.43a8,8,0,0,1,3.5-3.5c1.71-.87,3.95-.87,8.43-.87H600.2c4.48,0,6.72,0,8.43.87a8,8,0,0,1,3.5,3.5c.87,1.71.87,3.95.87,8.43v4.4c0,4.48,0,6.72-.87,8.43a8,8,0,0,1-3.5,3.5c-1.71.87-4,.87-8.43.87H145.8c-4.48,0-6.72,0-8.43-.87a8,8,0,0,1-3.5-3.5c-.87-1.71-.87-4-.87-8.43Z" transform="translate(91.5 0.5)" fill="#f1f1f1"/>
          <path d="M307.5,27.63h0a7.77,7.77,0,0,1,.2-2.3,1.91,1.91,0,0,1,.57-.95,2.18,2.18,0,0,1,2.46,0,1.91,1.91,0,0,1,.57.95,7.77,7.77,0,0,1,.2,2.3V28h-4Zm-1,.37v-.33h0a9.19,9.19,0,0,1,.24-2.63,3,3,0,0,1,.89-1.43,3.17,3.17,0,0,1,3.74,0,3,3,0,0,1,.89,1.43,9.19,9.19,0,0,1,.24,2.63h0V28h0a1,1,0,0,1,1,1v4.5a1,1,0,0,1-1,1h-6a1,1,0,0,1-1-1V29a1,1,0,0,1,1-1Z" transform="translate(91.5 0.5)" fill="#8c8c8c" fill-rule="evenodd"/>
          <g clip-path="url(#clip-path-3)">
            <g>
              <path d="M592.17,26.71a4.94,4.94,0,0,1,1-2A5,5,0,0,1,597.13,23a5,5,0,0,1,2.14.55.67.67,0,0,0,.19.05.68.68,0,0,0,.2,0,.59.59,0,0,0,.17-.1.44.44,0,0,0,.12-.15.67.67,0,0,0,0-.19.58.58,0,0,0,0-.19.52.52,0,0,0-.1-.18.61.61,0,0,0-.15-.12,6,6,0,1,0,2.73,2.85.53.53,0,0,0-.29-.26.5.5,0,0,0-.38,0,.55.55,0,0,0-.26.28.52.52,0,0,0,0,.39,4.93,4.93,0,0,1,.45,2.33,5,5,0,0,1-.67,2.27,5.09,5.09,0,0,1-1.65,1.71,5,5,0,0,1-4.59.38,5,5,0,0,1-1.92-1.4,5.05,5.05,0,0,1-1-2.13A4.87,4.87,0,0,1,592.17,26.71Z" transform="translate(91.5 0.5)" fill="#8c8c8c" fill-rule="evenodd"/>
              <path d="M597.15,20.15a.48.48,0,0,1,.7,0l2.5,2.5a.36.36,0,0,1,.11.16.47.47,0,0,1,0,.38.36.36,0,0,1-.11.16l-2.5,2.5a.36.36,0,0,1-.16.11.47.47,0,0,1-.38,0,.36.36,0,0,1-.16-.11.47.47,0,0,1-.15-.35.41.41,0,0,1,0-.19.36.36,0,0,1,.11-.16L599.29,23l-2.14-2.15a.36.36,0,0,1-.11-.16.47.47,0,0,1,0-.38.36.36,0,0,1,.11-.16Z" transform="translate(91.5 0.5)" fill="#8c8c8c" fill-rule="evenodd"/>
            </g>
          </g>
          <path d="M690.81,23.44a.48.48,0,0,0,.2.14.6.6,0,0,0,.48,0,.56.56,0,0,0,.2-.14L695,20.13l3.31,3.31a.56.56,0,0,0,.2.14.6.6,0,0,0,.48,0,.7.7,0,0,0,.34-.34.6.6,0,0,0,0-.48.56.56,0,0,0-.14-.2l-3.75-3.75a.56.56,0,0,0-.2-.14.6.6,0,0,0-.48,0,.48.48,0,0,0-.2.14l-3.75,3.75a.56.56,0,0,0-.14.2.6.6,0,0,0,0,.48.56.56,0,0,0,.14.2Z" transform="translate(91.5 0.5)" fill="#8c8c8c" fill-rule="evenodd"/>
          <path d="M695,32.38a.6.6,0,0,0,.44-.19.6.6,0,0,0,.18-.44V20.5a.6.6,0,0,0-.18-.44.63.63,0,0,0-.88,0,.6.6,0,0,0-.18.44V31.75a.6.6,0,0,0,.18.44A.6.6,0,0,0,695,32.38Z" transform="translate(91.5 0.5)" fill="#8c8c8c" fill-rule="evenodd"/>
          <path d="M688.12,35.5A1.88,1.88,0,0,0,690,37.38h10a1.88,1.88,0,0,0,1.88-1.88V26.75A1.86,1.86,0,0,0,700,24.88h-1.88a.62.62,0,0,0-.44.18.63.63,0,0,0,0,.88.62.62,0,0,0,.44.18H700a.6.6,0,0,1,.44.19.6.6,0,0,1,.18.44V35.5a.6.6,0,0,1-.18.44.59.59,0,0,1-.44.18H690a.59.59,0,0,1-.44-.18.6.6,0,0,1-.18-.44V26.75a.6.6,0,0,1,.18-.44.6.6,0,0,1,.44-.19h1.88a.62.62,0,0,0,.44-.18.63.63,0,0,0,0-.88.62.62,0,0,0-.44-.18H690a1.86,1.86,0,0,0-1.88,1.87Z" transform="translate(91.5 0.5)" fill="#8c8c8c" fill-rule="evenodd"/>
          <path d="M735.53,21.47a.75.75,0,0,0-1.28.53v5.25H729a.75.75,0,0,0,0,1.5h5.25V34a.75.75,0,0,0,1.5,0V28.75H741a.75.75,0,0,0,0-1.5h-5.25V22A.75.75,0,0,0,735.53,21.47Z" transform="translate(91.5 0.5)" fill="#8c8c8c" fill-rule="evenodd"/>
          <rect x="0.5" y="56.5" width="860" height="497" fill="#fff"/>
        </g>
      </g>
      <rect x="0.5" y="0.5" width="860" height="553" rx="16" fill="none" stroke="#000" stroke-opacity="0.1"/>
      <rect x="37.5" y="80.5" width="756" height="442" rx="15" fill="none"/>
    </g>
  </g>
  <image width="1080" height="1400" transform="translate(13.52 98.59) scale(0.32)" xlink:href="../../../../Desktop/arrange/src/assets/Calender_View.png"/>
  <image width="1080" height="1400" transform="translate(585.82 90.39) scale(0.31)" xlink:href="../../../../Desktop/arrange/src/assets/Arrange-Meeting.png"/>
  <image width="1080" height="1400" transform="translate(285.37 73.06) scale(0.33)" xlink:href="../../../../Desktop/arrange/src/assets/Attendees.png"/>
  <text transform="translate(414.46 33.21)" font-size="12" fill="#4c4c4c" font-family="Roboto-Medium, Roboto" font-weight="500">ar<tspan x="10.71" y="0" letter-spacing="-0.01em">r</tspan><tspan x="14.75" y="0">angeapp.info</tspan></text>
</svg>
