<svg xmlns="http://www.w3.org/2000/svg" width="650" height="650" viewBox="0 0 650 650">
  <g id="readmyface_logo_v2" transform="translate(-275 -175)">
    <g id="Layer_2_copy">
      <g id="Group_6" data-name="Group 6">
        <path id="Path_214" data-name="Path 214" d="M599.07,663.67c-9.74-.5-19.56,3.85-29.5,4.21a30.507,30.507,0,0,1-19.44-5.89c-5.51-3.91-10.58-8.07-16.2-11.79l-8.2-5.72.77-1.15,8.33,5.56c16.86,10.66,22.29,20.67,44.3,15.04,6.42-1.47,13.03-3.46,20.06-3.27,0,.01-.12,3.01-.12,3.01Z" fill="#0d9b13" stroke="#0d9b13" stroke-width="3"/>
      </g>
      <g id="Group_7" data-name="Group 7">
        <path id="Path_215" data-name="Path 215" d="M532.8,643.64c10.88,2.9,22.16,3.6,33.39,3.8,11.28.14,22.52,1.75,33.8,1.56l.04,2a132.279,132.279,0,0,1-17.02-.65c-11.27-1-22.59-.66-33.86-2.02A95.769,95.769,0,0,1,532.41,645l.39-1.36Z" fill="#0d9b13" stroke="#0d9b13" stroke-width="3"/>
      </g>
      <g id="Group_8" data-name="Group 8">
        <path id="Path_216" data-name="Path 216" d="M598.74,660.67c10.47-.3,19.64,4.19,29.73,4.82a28.228,28.228,0,0,0,18.23-5.15c5.45-3.71,10.81-7.9,16.4-11.44l8.33-5.56.77,1.15-8.2,5.72c-2.72,1.92-5.51,3.78-8.14,5.77-5.35,4.05-10.63,8.6-17.23,10.66-13.19,4.28-26.71-3.55-39.77-2.96-.01-.01-.12-3.01-.12-3.01Z" fill="#0d9b13" stroke="#0d9b13" stroke-width="3"/>
      </g>
      <g id="Group_9" data-name="Group 9">
        <path id="Path_217" data-name="Path 217" d="M599.94,648.99c11.27.23,22.51-1.43,33.8-1.53,11.22-.17,22.53-.9,33.39-3.83l.39,1.36c-16.41,4.97-33.71,3.95-50.59,5.34a135.991,135.991,0,0,1-17.02.66c-.01.02.03-2,.03-2Z" fill="#0d9b13" stroke="#0d9b13" stroke-width="3"/>
      </g>
      <path id="Path_218" data-name="Path 218" d="M599.38,268.61c-76.25.05-142.44,60.86-150.32,118.57a90.938,90.938,0,0,0-.42,20.78c.68,8.44,1.58,20.06,2.52,33.91,1.16,17.2,2.7,36.69,3.42,62.31.91,31.99,1.02,45.48.95,54.24-.03,2.67-.05,4.85-.08,6.69-.08,6.2-.13,10.63-.14,11.24-.28,20.38-.49,35.11,2.65,48.77a91.678,91.678,0,0,0,15.31,33.11,179.551,179.551,0,0,0,43.75,42.83c12.48,8.57,43.43,30.06,82.36,30.34" fill="none" stroke="#075a82" stroke-miterlimit="10" stroke-width="10"/>
      <path id="Path_219" data-name="Path 219" d="M599.38,731.4c38.93-.28,69.88-21.77,82.36-30.34a179.551,179.551,0,0,0,43.75-42.83,91.678,91.678,0,0,0,15.31-33.11c3.14-13.66,2.93-28.39,2.65-48.77-.01-.61-.06-5.04-.14-11.24-.03-1.84-.05-4.02-.08-6.69-.07-8.76.04-22.25.95-54.24.72-25.62,2.26-45.11,3.42-62.31.94-13.85,1.84-25.47,2.52-33.91a90.938,90.938,0,0,0-.42-20.78c-7.88-57.71-74.07-118.52-150.32-118.57" fill="none" stroke="#075a82" stroke-miterlimit="10" stroke-width="10"/>
      <path id="Path_220" data-name="Path 220" d="M455.34,603.12c-37.49,3.31-35.64-33.13-35.64-33.13s4.1-45.57,1.12-76.62c-2.16-22.55-3.61-45.29-4.2-55.32a27.231,27.231,0,0,1,2.87-14.14c7.53-14.57,20.56-8.08,26.11-4.37a18.465,18.465,0,0,1,4.05,3.69l.18.22" fill="none" stroke="#075a82" stroke-miterlimit="10" stroke-width="10"/>
      <path id="Path_221" data-name="Path 221" d="M455.45,564.72l-2.16.27c-21.39,1.89-20.24-18.9-20.24-18.9s2.24-26.01.54-43.73c-1.23-12.87-2.06-25.85-2.4-31.57a15.524,15.524,0,0,1,1.64-8.07c5.56-10.77,16.4-1.38,16.4-1.38l3.46,3.18" fill="none" stroke="#075a82" stroke-miterlimit="10" stroke-width="10"/>
      <path id="Path_222" data-name="Path 222" d="M744.66,584.94c37.49,3.31,35.64-33.13,35.64-33.13s-4.1-45.57-1.12-76.63c2.16-22.55,3.61-45.29,4.2-55.32a27.231,27.231,0,0,0-2.87-14.14c-7.53-14.57-20.56-8.08-26.11-4.37a18.465,18.465,0,0,0-4.05,3.69l-.18.22" fill="none" stroke="#075a82" stroke-miterlimit="10" stroke-width="10"/>
      <path id="Path_223" data-name="Path 223" d="M744.55,546.54l2.16.27c21.39,1.89,20.24-18.9,20.24-18.9s-2.24-26.01-.54-43.73c1.23-12.87,2.06-25.85,2.4-31.57a15.524,15.524,0,0,0-1.64-8.07c-5.56-10.77-16.4-1.38-16.4-1.38l-3.46,3.18" fill="none" stroke="#075a82" stroke-miterlimit="10" stroke-width="10"/>
      <g id="Group_10" data-name="Group 10">
        <path id="Path_224" data-name="Path 224" d="M571.15,441.04c-1.32.03-2.16-1.04-3.05-1.71-.87-.71-1.72-1.44-2.65-2.06a69.307,69.307,0,0,0-42.89-14.49c-17.79.34-35.03,6.01-51.24,13.39a.345.345,0,0,1-.38-.57,70.836,70.836,0,0,1,11.51-7.58,91.253,91.253,0,0,1,12.67-5.59c21.8-7.82,48.15-6.43,66.68,8.43a55.391,55.391,0,0,1,7.59,7.09c.66.84,1.89,1.69,1.86,2.99.01.06-.04.1-.1.1Z" fill="#075a82" stroke="#075a82" stroke-width="5"/>
      </g>
      <path id="Path_225" data-name="Path 225" d="M564.53,472.71a.178.178,0,0,1-.07.32c-.87.2-2.03.5-3.38.95a42.246,42.246,0,0,0-9.56,4.88,46.933,46.933,0,0,1-11.81,4.88c-.61.18-1.21.35-1.81.5a46.147,46.147,0,0,1-14.58,1.21,50.278,50.278,0,0,1-5.92-.79c-6.97-1.33-8.02-3.16-20.06-7.3-6.07-2.09-11.14-3.46-14.51-4.31a.183.183,0,0,1-.06-.33c2.64-1.76,20.19-12.97,39.7-13.58q2.04-.075,4.11.03a67.842,67.842,0,0,1,12.76,1.88A71.322,71.322,0,0,1,564.53,472.71Z" fill="none" stroke="#075a82" stroke-linecap="round" stroke-miterlimit="10" stroke-width="5"/>
      <path id="Path_226" data-name="Path 226" d="M544.3,472.08a14.718,14.718,0,0,1-6.4,12.16,46.147,46.147,0,0,1-14.58,1.21,14.75,14.75,0,0,1-.85-26.31q2.04-.075,4.11.03a67.842,67.842,0,0,1,12.76,1.88A14.729,14.729,0,0,1,544.3,472.08Z" fill="none" stroke="#0d9b13" stroke-linecap="round" stroke-miterlimit="10" stroke-width="5"/>
      <path id="Path_227" data-name="Path 227" d="M582.46,583.36c-16.44,3.12-30,.12-31.5-18.26a10.848,10.848,0,0,1-.04-1.27c.07-6.3,4.68-10.72,10.51-13.8,6.11-3.24,13.56-4.99,18.53-5.87" fill="none" stroke="#075a82" stroke-linecap="round" stroke-miterlimit="10" stroke-width="5"/>
      <line id="Line_1" data-name="Line 1" x1="0.05" y1="1.43" transform="translate(550.91 563.68)" fill="none" stroke="#000" stroke-linecap="round" stroke-miterlimit="10" stroke-width="2"/>
      <g id="Group_11" data-name="Group 11">
        <path id="Path_228" data-name="Path 228" d="M573.75,607.72A45.7,45.7,0,0,0,587,587.55a1,1,0,0,1,1.91.6,46.682,46.682,0,0,1-5.76,11.3,48.233,48.233,0,0,1-8.49,9.32.7.7,0,0,1-.91-1.05Z" fill="#075a82" stroke="#075a82" stroke-width="3"/>
      </g>
      <g id="Group_12" data-name="Group 12">
        <path id="Path_229" data-name="Path 229" d="M599.05,637.42c-3.43.34-6.92-1.23-9.53-3.12-6.78-4.43-14.57-5.93-21.94-2.05a209.766,209.766,0,0,1-22.35,9.39c-6.24,1.95-12.64,3.65-19.26,3.15l.07-1.09a75.141,75.141,0,0,0,18.61-3.78,168.133,168.133,0,0,0,17.74-7.4c10.48-5.61,17.8-6.51,28.18.04,2.7,1.88,5.15,3.11,8.4,2.87l.08,1.99Z" fill="#0d9b13" stroke="#0d9b13" stroke-width="3"/>
      </g>
      <circle id="Ellipse_1" data-name="Ellipse 1" cx="5" cy="5" r="5" transform="translate(525.45 467.05)" fill="#075a82"/>
      <g id="Group_13" data-name="Group 13">
        <path id="Path_230" data-name="Path 230" d="M627.25,440.94c-.04-1.31,1.18-2.12,1.86-2.99a55.344,55.344,0,0,1,7.59-7.09c18.53-14.86,44.88-16.25,66.68-8.43a82.273,82.273,0,0,1,24.18,13.17.338.338,0,0,1,.05.48.342.342,0,0,1-.42.09c-16.2-7.38-33.45-13.04-51.24-13.39-16.68-.3-32.75,5.99-45.54,16.55-.86.65-1.75,1.75-3.05,1.71a.1.1,0,0,1-.11-.1Z" fill="#075a82" stroke="#075a82" stroke-width="5"/>
      </g>
      <g id="Group_14" data-name="Group 14">
        <path id="Path_231" data-name="Path 231" d="M576.34,449.71c9.68,24.02,10.18,50.8,7.03,76.21-.77,6.38-1.68,12.74-2.48,19.09-1.17,11.53-5.55,31.78,4.89,39.78,3.68,2.67,8.24,3.54,12.79,3.58l-.02,3c-6.7-.01-14.15-2.21-18.14-8.03-6.94-10.8-3.34-26.71-1.95-38.65.87-6.37,1.86-12.71,2.7-19.05a192.892,192.892,0,0,0,1.76-38.19c-.71-12.73-2.83-25.46-7.34-37.43-.01,0,.76-.31.76-.31Z" fill="#075a82" stroke="#075a82" stroke-width="3"/>
      </g>
      <path id="Path_232" data-name="Path 232" d="M632.3,472.71a.178.178,0,0,0,.07.32c.87.2,2.03.5,3.38.95a42.246,42.246,0,0,1,9.56,4.88,46.933,46.933,0,0,0,11.81,4.88c.61.18,1.21.35,1.81.5a46.147,46.147,0,0,0,14.58,1.21,50.278,50.278,0,0,0,5.92-.79c6.97-1.33,8.02-3.16,20.06-7.3,6.07-2.09,11.14-3.46,14.51-4.31a.183.183,0,0,0,.06-.33c-2.64-1.76-20.19-12.97-39.7-13.58q-2.04-.075-4.11.03a67.842,67.842,0,0,0-12.76,1.88A71.424,71.424,0,0,0,632.3,472.71Z" fill="none" stroke="#075a82" stroke-linecap="round" stroke-miterlimit="10" stroke-width="5"/>
      <path id="Path_233" data-name="Path 233" d="M652.54,472.08a14.718,14.718,0,0,0,6.4,12.16,46.147,46.147,0,0,0,14.58,1.21,14.75,14.75,0,0,0,.85-26.31q-2.04-.075-4.11.03a67.842,67.842,0,0,0-12.76,1.88A14.729,14.729,0,0,0,652.54,472.08Z" fill="none" stroke="#0d9b13" stroke-linecap="round" stroke-miterlimit="10" stroke-width="5"/>
      <path id="Path_234" data-name="Path 234" d="M616.88,544.16c4.97.88,12.42,2.63,18.53,5.87,5.83,3.08,10.44,7.5,10.51,13.8a10.849,10.849,0,0,1-.04,1.27c-1.5,18.38-15.06,21.38-31.5,18.26" fill="none" stroke="#075a82" stroke-linecap="round" stroke-miterlimit="10" stroke-width="5"/>
      <g id="Group_15" data-name="Group 15">
        <path id="Path_235" data-name="Path 235" d="M609.53,587.65a45.9,45.9,0,0,0,13.75,19.85,1,1,0,0,1-1.29,1.53,47.684,47.684,0,0,1-8.31-9.57,46.344,46.344,0,0,1-5.46-11.37.689.689,0,0,1,.45-.87.675.675,0,0,1,.86.43Z" fill="#075a82" stroke="#075a82" stroke-width="3"/>
      </g>
      <g id="Group_16" data-name="Group 16">
        <path id="Path_236" data-name="Path 236" d="M598.97,635.43c3.26.24,5.7-1,8.4-2.88,10.4-6.55,17.69-5.64,28.18-.04a166.054,166.054,0,0,0,17.74,7.4,75.239,75.239,0,0,0,18.61,3.78l.07,1.09c-6.62.51-13.02-1.2-19.26-3.15a169.7,169.7,0,0,1-17.97-7.36,66.517,66.517,0,0,0-8.74-3.7c-6.15-1.68-12.31.37-17.58,3.72a24.158,24.158,0,0,1-4.38,2.43,13.5,13.5,0,0,1-5.15.7s.08-1.99.08-1.99Z" fill="#0d9b13" stroke="#0d9b13" stroke-width="3"/>
      </g>
      <circle id="Ellipse_2" data-name="Ellipse 2" cx="5" cy="5" r="5" transform="translate(662.98 467.05)" fill="#075a82"/>
      <g id="Group_17" data-name="Group 17">
        <path id="Path_237" data-name="Path 237" d="M621.26,450.02c-8.86,24.07-8.98,50.46-5.58,75.62.84,6.34,1.83,12.68,2.7,19.05,1.4,11.95,5,27.83-1.95,38.65-3.99,5.81-11.44,8.01-18.14,8.03l-.02-3c4.54-.04,9.11-.91,12.79-3.58,10.43-7.97,6.06-28.26,4.89-39.78-.8-6.35-1.71-12.7-2.48-19.09-3.16-25.4-2.65-52.18,7.03-76.21l.76.31Z" fill="#075a82" stroke="#075a82" stroke-width="3"/>
      </g>
      <path id="Path_238" data-name="Path 238" d="M600,636.88" fill="none" stroke="red" stroke-miterlimit="10" stroke-width="2"/>
      <path id="Path_239" data-name="Path 239" d="M600,636.02" fill="none" stroke="red" stroke-miterlimit="10" stroke-width="2"/>
      <path id="Path_240" data-name="Path 240" d="M600,636.02" fill="none"/>
    </g>
    <g id="Layer_3">
      <path id="Path_241" data-name="Path 241" d="M726,182.5H835A82.5,82.5,0,0,1,917.5,265V374.5" fill="none" stroke="#0d9b13" stroke-linecap="round" stroke-miterlimit="10" stroke-width="15"/>
      <path id="Path_242" data-name="Path 242" d="M282.5,374.5V265A82.5,82.5,0,0,1,365,182.5H475" fill="none" stroke="#0d9b13" stroke-linecap="round" stroke-miterlimit="10" stroke-width="15"/>
      <path id="Path_243" data-name="Path 243" d="M282.5,625.5V735A82.5,82.5,0,0,0,365,817.5H475" fill="none" stroke="#0d9b13" stroke-linecap="round" stroke-miterlimit="10" stroke-width="15"/>
      <path id="Path_244" data-name="Path 244" d="M917.5,625.5V735A82.5,82.5,0,0,1,835,817.5H726" fill="none" stroke="#0d9b13" stroke-linecap="round" stroke-miterlimit="10" stroke-width="15"/>
    </g>
    <g id="Layer_3_copy">
      <path id="Path_245" data-name="Path 245" d="M720.25,197H824.27A78.732,78.732,0,0,1,903,275.73v104.5" fill="none" stroke="#000" stroke-linecap="round" stroke-miterlimit="10" stroke-width="4" opacity="0.17"/>
      <path id="Path_246" data-name="Path 246" d="M297,380.23V275.73A78.732,78.732,0,0,1,375.73,197H480.71" fill="none" stroke="#000" stroke-linecap="round" stroke-miterlimit="10" stroke-width="4" opacity="0.17"/>
      <path id="Path_247" data-name="Path 247" d="M297,619.77v104.5A78.732,78.732,0,0,0,375.73,803H480.71" fill="none" stroke="#000" stroke-linecap="round" stroke-miterlimit="10" stroke-width="4" opacity="0.17"/>
      <path id="Path_248" data-name="Path 248" d="M903,619.77v104.5A78.732,78.732,0,0,1,824.27,803H720.25" fill="none" stroke="#000" stroke-linecap="round" stroke-miterlimit="10" stroke-width="4" opacity="0.17"/>
    </g>
  </g>
</svg>
