<svg id="Layer_1" data-name="Layer 1" xmlns="http://www.w3.org/2000/svg" width="414.38" height="95.11" viewBox="0 0 414.38 95.11">
  <g>
    <g>
      <path d="M60.47,225.07c27,5.05-5.2,68.26-5.2,68.26L142,206.56,57.57,224.77A19.87,19.87,0,0,1,60.47,225.07Zm71.36-12.94L65.49,278.46c1.05-2.63,2.11-5.46,3.13-8.4,6.39-18.46,7.62-31.88,3.68-39.9A15,15,0,0,0,69,225.67Z" transform="translate(-46.93 -206.56)" fill="#fff"/>
      <g>
        <g>
          <path d="M55.27,293.33s9.61-18.84,13.94-36.77c-1.54-.21-3.1-.38-4.66-.53-3.8,20-17.62,45.64-17.62,45.64Z" transform="translate(-46.93 -206.56)" fill="#fff"/>
          <path d="M68.62,270.06c-1,2.94-2.08,5.77-3.13,8.4L83.91,260a59.1,59.1,0,0,0-11.44-3Q71,263.07,68.62,270.06Z" transform="translate(-46.93 -206.56)" fill="#fff"/>
        </g>
        <g>
          <path d="M49.22,233.11c9.26-1.47,13.86,1.86,15.53,7.73l6.34-2.8a16.58,16.58,0,0,0-3.35-8.92Z" transform="translate(-46.93 -206.56)" fill="#fff"/>
          <path d="M74.21,236.65l39.32-17.4-42.26,9.11a17.52,17.52,0,0,1,1,1.8A21.56,21.56,0,0,1,74.21,236.65Z" transform="translate(-46.93 -206.56)" fill="#fff"/>
        </g>
      </g>
    </g>
    <g>
      <path d="M180.14,272.75,164.51,250.4l-4.85,5.38v17h-6.09v-46.1h6.09V248l18.72-21.3H186l-17.26,19.13,18.66,27Z" transform="translate(-46.93 -206.56)" fill="#fff"/>
      <path d="M199.09,272.75a5.16,5.16,0,0,1-5.38-5.38v-20a5.16,5.16,0,0,1,5.38-5.38h17.67a5.16,5.16,0,0,1,5.38,5.38v8.13a4.7,4.7,0,0,1-5.09,5.09H199.68v5.91a.86.86,0,0,0,.93.94h14a.86.86,0,0,0,.94-.94v-3.39h6v4.21a5.16,5.16,0,0,1-5.38,5.38Zm17.09-24.51a.87.87,0,0,0-.94-.94H200.61a.86.86,0,0,0-.93.94v7.25h15.56a.86.86,0,0,0,.94-.93Z" transform="translate(-46.93 -206.56)" fill="#fff"/>
      <path d="M239.22,272.75V286.5h-6V242H256.6a5.16,5.16,0,0,1,5.38,5.38v20a5.16,5.16,0,0,1-5.38,5.38ZM256,248.24a.86.86,0,0,0-.94-.94H239.22v20.19h15.86a.86.86,0,0,0,.94-.94Z" transform="translate(-46.93 -206.56)" fill="#fff"/>
      <path d="M273.45,272.75V224.6h6v48.15Z" transform="translate(-46.93 -206.56)" fill="#fff"/>
      <path d="M296.27,272.75a5.16,5.16,0,0,1-5.39-5.38v-20a5.16,5.16,0,0,1,5.39-5.38h17.67a5.16,5.16,0,0,1,5.38,5.38v8.13a4.7,4.7,0,0,1-5.09,5.09H296.85v5.91a.86.86,0,0,0,.94.94h14a.86.86,0,0,0,.93-.94v-3.39h6v4.21a5.16,5.16,0,0,1-5.38,5.38Zm17.08-24.51a.86.86,0,0,0-.94-.94H297.79a.86.86,0,0,0-.94.94v7.25h15.56a.86.86,0,0,0,.94-.93Z" transform="translate(-46.93 -206.56)" fill="#fff"/>
      <path d="M330.08,272.75V247.42a5.16,5.16,0,0,1,5.38-5.38h13.11v5.26H337a.86.86,0,0,0-.93.94v24.51Z" transform="translate(-46.93 -206.56)" fill="#fff"/>
      <path d="M363.43,272.75a5.16,5.16,0,0,1-5.38-5.38V226.65h6.08v39.67a1,1,0,0,0,1.05,1.05h19.25v5.38Z" transform="translate(-46.93 -206.56)" fill="#fff"/>
      <path d="M398.82,272.75a5.16,5.16,0,0,1-5.38-5.38v-8.19a4.7,4.7,0,0,1,5.09-5.09h17.09v-5.85a.87.87,0,0,0-.94-.94H400.93a.86.86,0,0,0-.94.94v3.33h-6v-4.15a5.16,5.16,0,0,1,5.38-5.38H416.2a5.16,5.16,0,0,1,5.38,5.38v20a5.16,5.16,0,0,1-5.38,5.38Zm16.8-13.51H400.34a.86.86,0,0,0-.93.93v6.38a.86.86,0,0,0,.93.94h14.34a.87.87,0,0,0,.94-.94Z" transform="translate(-46.93 -206.56)" fill="#fff"/>
      <path d="M432.58,272.75V224.6h6V242h17.37a5.16,5.16,0,0,1,5.39,5.38v20a5.16,5.16,0,0,1-5.39,5.38Zm22.76-24.51a.86.86,0,0,0-.94-.94H438.55v20.19H454.4a.86.86,0,0,0,.94-.94Z" transform="translate(-46.93 -206.56)" fill="#fff"/>
    </g>
  </g>
</svg>
