<svg id="Layer_1" data-name="Layer 1" xmlns="http://www.w3.org/2000/svg" width="474.71" height="95.49" viewBox="0 0 474.71 95.49">
  <g>
    <path d="M62.07,274.54,38,240.06l-7.49,8.31v26.17H21.1V203.42h9.38v32.85l28.89-32.85H71.1L44.47,232.93l28.79,41.61Z" transform="translate(-21.1 -200.26)" fill="#fff"/>
    <path d="M91.31,274.54a8,8,0,0,1-8.3-8.3V235.46a8,8,0,0,1,8.3-8.3h27.26a8,8,0,0,1,8.3,8.3V248c0,4.87-3,7.85-7.85,7.85H92.22V265a1.33,1.33,0,0,0,1.44,1.45h21.66a1.33,1.33,0,0,0,1.44-1.45v-5.23H126v6.5a8,8,0,0,1-8.3,8.3Zm26.36-37.82a1.33,1.33,0,0,0-1.45-1.44H93.66a1.32,1.32,0,0,0-1.44,1.44v11.2h24a1.34,1.34,0,0,0,1.45-1.45Z" transform="translate(-21.1 -200.26)" fill="#fff"/>
    <path d="M153.22,274.54v21.21H144V227.16h36a8,8,0,0,1,8.3,8.3v30.78a8,8,0,0,1-8.3,8.3Zm25.91-37.82a1.33,1.33,0,0,0-1.45-1.44H153.22v31.14h24.46a1.34,1.34,0,0,0,1.45-1.45Z" transform="translate(-21.1 -200.26)" fill="#fff"/>
    <path d="M206,274.54V200.26h9.2v74.28Z" transform="translate(-21.1 -200.26)" fill="#fff"/>
    <path d="M241.21,274.54a8,8,0,0,1-8.3-8.3V235.46a8,8,0,0,1,8.3-8.3h27.26a8,8,0,0,1,8.3,8.3V248c0,4.87-3,7.85-7.85,7.85H242.11V265a1.34,1.34,0,0,0,1.45,1.45h21.66a1.34,1.34,0,0,0,1.45-1.45v-5.23h9.2v6.5a8,8,0,0,1-8.3,8.3Zm26.36-37.82a1.33,1.33,0,0,0-1.45-1.44H243.56a1.33,1.33,0,0,0-1.45,1.44v11.2h24a1.34,1.34,0,0,0,1.45-1.45Z" transform="translate(-21.1 -200.26)" fill="#fff"/>
    <path d="M293.38,274.54V235.46a8,8,0,0,1,8.3-8.3H321.9v8.12H304a1.33,1.33,0,0,0-1.45,1.44v37.82Z" transform="translate(-21.1 -200.26)" fill="#fff"/>
    <path d="M344.82,274.54a8,8,0,0,1-8.3-8.3V203.42h9.38v61.19a1.62,1.62,0,0,0,1.63,1.63h29.69v8.3Z" transform="translate(-21.1 -200.26)" fill="#fff"/>
    <path d="M399.42,274.54a8,8,0,0,1-8.3-8.3V253.6c0-4.87,3-7.85,7.85-7.85h26.35v-9a1.32,1.32,0,0,0-1.44-1.44H402.67a1.32,1.32,0,0,0-1.44,1.44v5.15H392v-6.41a8,8,0,0,1,8.3-8.3h25.91a8,8,0,0,1,8.3,8.3v30.78a8,8,0,0,1-8.3,8.3Zm25.9-20.85H401.77a1.33,1.33,0,0,0-1.45,1.45V265a1.33,1.33,0,0,0,1.45,1.45h22.11a1.33,1.33,0,0,0,1.44-1.45Z" transform="translate(-21.1 -200.26)" fill="#fff"/>
    <path d="M451.49,274.54V200.26h9.21v26.9h26.8a8,8,0,0,1,8.31,8.3v30.78a8,8,0,0,1-8.31,8.3Zm35.11-37.82a1.32,1.32,0,0,0-1.44-1.44H460.7v31.14h24.46A1.33,1.33,0,0,0,486.6,265Z" transform="translate(-21.1 -200.26)" fill="#fff"/>
  </g>
</svg>
